<svg width="151" height="44" viewBox="0 0 151 44" xmlns="http://www.w3.org/2000/svg">
  <!-- Chalice scaled to full height -->
  <g transform="translate(0, 2.5) scale(0.25)">
    <path d="M60 10
             C90 10, 110 30, 110 50
             C110 70, 90 90, 60 90
             C30 90, 10 70, 10 50
             C10 30, 30 10, 60 10
             Z
             M55 90
             L65 90
             L65 105
             C75 110, 75 120, 60 120
             C45 120, 45 110, 55 105
             Z
             M40 120
             C20 130, 20 140, 100 140
             C100 130, 80 120, 60 120
             Z"
          fill="#605DC8"/>
  </g>

  <!-- Bold, perfectly sized text -->
  <text x="44" y="32"
        font-family="'Be Vietnam Pro', sans-serif"
        font-size="19"
        font-weight="700"
        fill="#605DC8">
    Andy Grails
  </text>
</svg>
